<?xml version="1.0" encoding="utf-8"?>
<!-- Generator: Adobe Illustrator 19.1.1, SVG Export Plug-In . SVG Version: 6.00 Build 0)  -->
<svg version="1.1" xmlns="http://www.w3.org/2000/svg" xmlns:xlink="http://www.w3.org/1999/xlink" x="0px" y="0px"
	 viewBox="0 0 214 1174" style="enable-background:new 0 0 214 1174;" xml:space="preserve">
<style type="text/css">
	.st0{fill:#C2D6EB;}
	.st1{fill:#F7B840;}
	.st2{fill:#FFDE85;}
	.st3{opacity:8.000000e-002;fill:#403821;}
	.st4{fill:#5D5D5D;}
	.st5{fill:#FFE8AD;}
	.st6{opacity:0.15;fill:#17222D;}
	.st7{fill:#F06F51;}
	.st8{fill:#FFFFFF;}
	.st9{fill:#CDA25D;}
	.st10{fill:none;stroke:#B55944;stroke-width:7;stroke-miterlimit:10;}
	.st11{fill:#B55944;}
	.st12{fill:none;stroke:#CDA25D;stroke-width:6;stroke-miterlimit:10;}
	.st13{opacity:0.26;fill:#FFFFFF;}
</style>
<g id="Layer_1">
</g>
<g id="Layer_2">
	<path class="st1" d="M17.8,20.7C18.9,7.6,28.3-1.7,38.5,0.3l0,0c9.7,1.8,16.4,13.1,15.3,25.5L43.9,172
		c-1.3,11.2,4.9,21.5,13.7,22.8h0c8.6,1.3,16.4-6.6,17.4-17.7l2.6-28.9c0.9-11.3,9.1-19.4,17.9-17.6h0c8,1.6,13.6,10.8,12.9,21.1
		L105,185c-1.2,11.9,5.2,22.9,14.5,24.6h0c9.7,1.8,18.7-7.1,19.6-19.7l2.4-10.6c1-13.1,10.4-22.5,20.6-20.7h0
		c9.6,1.7,16.5,12.9,15.5,25.3c-79.5,256.2-73.2,554.7,34.3,903.1c16.4,82.5-68.5,118.1-99.6,48.5l-20.6-75.9
		C-12.8,727.9-13,377.1,17.8,20.7z"/>
</g>
<g id="Layer_4">
</g>
<g id="Layer_5">
</g>
<g id="Layer_3">
</g>
</svg>
