<?xml version="1.0" encoding="utf-8"?>
<!-- Generator: Adobe Illustrator 19.1.1, SVG Export Plug-In . SVG Version: 6.00 Build 0)  -->
<svg version="1.1" xmlns="http://www.w3.org/2000/svg" xmlns:xlink="http://www.w3.org/1999/xlink" x="0px" y="0px"
	 viewBox="0 0 500.1 52" style="enable-background:new 0 0 500.1 52;" xml:space="preserve">
<style type="text/css">
	.st0{fill:#C2D6EB;}
	.st1{fill:#F7B840;}
	.st2{fill:#FFDE85;}
	.st3{opacity:8.000000e-002;fill:#403821;}
	.st4{fill:#5D5D5D;}
	.st5{fill:#FFE8AD;}
	.st6{opacity:0.15;fill:#17222D;}
	.st7{fill:#F06F51;}
	.st8{fill:#FFFFFF;}
	.st9{fill:#CDA25D;}
	.st10{fill:none;stroke:#B55944;stroke-width:7;stroke-miterlimit:10;}
	.st11{fill:#B55944;}
	.st12{fill:none;stroke:#CDA25D;stroke-width:6;stroke-miterlimit:10;}
	.st13{opacity:0.26;fill:#FFFFFF;}
</style>
<g id="Layer_1">
</g>
<g id="Layer_2">
</g>
<g id="Layer_4">
</g>
<g id="Layer_5">
</g>
<g id="Layer_3">
	<path class="st8" d="M37.3,28.8H5.5c-3,0-5.5-2.5-5.5-5.5V0h42.8v23.3C42.8,26.3,40.3,28.8,37.3,28.8z"/>
	<path class="st8" d="M100.6,45.8H68.8c-3,0-5.5-2.5-5.5-5.5V0h42.8v40.3C106.1,43.3,103.6,45.8,100.6,45.8z"/>
	<path class="st8" d="M323.8,52H292c-3,0-5.5-2.5-5.5-5.5V0h42.8v46.5C329.3,49.5,326.9,52,323.8,52z"/>
	<path class="st8" d="M212.7,52h-31.8c-3,0-5.5-2.5-5.5-5.5V0h42.8v46.5C218.2,49.5,215.8,52,212.7,52z"/>
	<path class="st8" d="M494.7,28.8h-31.8c-3,0-5.5-2.5-5.5-5.5V0h42.8v23.3C500.1,26.3,497.7,28.8,494.7,28.8z"/>
	<path class="st8" d="M436.3,45.8h-31.8c-3,0-5.5-2.5-5.5-5.5V0h42.8v40.3C441.8,43.3,439.4,45.8,436.3,45.8z"/>
</g>
</svg>
