<?xml version="1.0" encoding="utf-8"?>
<!-- Generator: Adobe Illustrator 19.1.1, SVG Export Plug-In . SVG Version: 6.00 Build 0)  -->
<svg version="1.1" xmlns="http://www.w3.org/2000/svg" xmlns:xlink="http://www.w3.org/1999/xlink" x="0px" y="0px"
	 viewBox="0 0 617.9 1031.9" style="enable-background:new 0 0 617.9 1031.9;" xml:space="preserve">
<style type="text/css">
	.st0{fill:#C2D6EB;}
	.st1{opacity:7.000000e-002;fill:#17222D;}
	.st2{fill:#F7B840;}
	.st3{fill:#FFDE85;}
	.st4{opacity:8.000000e-002;fill:#403821;}
	.st5{fill:#5D5D5D;}
	.st6{fill:#FFE8AD;}
	.st7{fill:#FFFFFF;}
	.st8{opacity:0.15;fill:#17222D;}
	.st9{fill:#F06F51;}
	.st10{fill:#CDA25D;}
	.st11{fill:none;stroke:#B55944;stroke-width:7;stroke-miterlimit:10;}
	.st12{fill:#B55944;}
	.st13{fill:none;stroke:#CDA25D;stroke-width:6;stroke-miterlimit:10;}
	.st14{opacity:0.26;fill:#FFFFFF;}
</style>
<g id="Layer_1">
</g>
<g id="Layer_2">
	<path class="st1" d="M453.3,193.9c7.8-10.6,128.3,64.6,121,74.7c-202.2,176.2-297.2,410.4-388.7,763.3h-113l29.2-99.7
		C187.1,594.9,239.9,481,453.3,193.9z"/>
	<path class="st2" d="M584.5,9.3c8.6-9.9,21.7-11.9,28.8-4.3l0,0c6.7,7.2,5.5,20.3-2.8,29.6l-94.3,112.1c-7.6,8.3-8.7,20.2-2.4,26.5
		l0,0c6.2,6.1,17.2,4.3,24.5-4l19.2-21.8c7.4-8.6,18.8-10.3,24.8-3.6l0,0c5.4,6,4.6,16.8-2,24.7l-22.4,24.8
		c-8,8.9-9.3,21.5-2.8,28.4v0c6.8,7.2,19.3,5.3,27.5-4.2l2.3-2.7c8.6-10,21.7-12,28.8-4.5v0c6.8,7.1,5.7,20.1-2.4,29.5
		C395.5,399.4,217.6,687.3,98.4,1031.9c-27.9,0.2-98.4,0-98.4,0l-0.3-65.4L30.1,891C141.9,561.6,349,278.5,584.5,9.3z"/>
</g>
<g id="Layer_4">
</g>
<g id="Layer_5">
</g>
<g id="Layer_3">
</g>
</svg>
