<?xml version="1.0" encoding="utf-8"?>
<!-- Generator: Adobe Illustrator 19.1.1, SVG Export Plug-In . SVG Version: 6.00 Build 0)  -->
<svg version="1.1" xmlns="http://www.w3.org/2000/svg" xmlns:xlink="http://www.w3.org/1999/xlink" x="0px" y="0px"
	 viewBox="0 0 114 114" style="enable-background:new 0 0 114 114;" xml:space="preserve">
<style type="text/css">
	.st0{fill:#C2D6EB;}
	.st1{fill:#F7B840;}
	.st2{fill:#FFDE85;}
	.st3{opacity:8.000000e-002;fill:#403821;}
	.st4{fill:#5D5D5D;}
	.st5{fill:#FFE8AD;}
	.st6{opacity:0.15;fill:#17222D;}
	.st7{fill:#F06F51;}
	.st8{fill:#FFFFFF;}
	.st9{fill:#CDA25D;}
	.st10{fill:none;stroke:#B55944;stroke-width:7;stroke-miterlimit:10;}
	.st11{fill:#B55944;}
	.st12{fill:none;stroke:#CDA25D;stroke-width:6;stroke-miterlimit:10;}
	.st13{opacity:0.26;fill:#FFFFFF;}
</style>
<g id="Layer_1">
</g>
<g id="Layer_2">
</g>
<g id="Layer_4">
</g>
<g id="Layer_5">
</g>
<g id="Layer_3">
	<circle class="st6" cx="57.7" cy="57.7" r="54.2"/>
	<circle class="st2" cx="57.7" cy="54.2" r="54.2"/>
	<g>
		<path class="st9" d="M42.5,39.3C42.8,31,49,24.9,58.8,24.9c11.2,0,16.4,6.7,16.4,14.8c0,6.7-3.6,11.4-11,13.9
			c-4.7,1.6-4.3,5-4.3,14.8h-5.9C54.1,57.8,53,51.3,63,48c4.8-1.6,6.1-5.7,6.1-8.2c0-5.2-4.2-8.9-10.3-8.9c-6,0-9.6,3.5-10.1,8.5
			H42.5z M52.3,79.1c0-2.4,2-4.4,4.5-4.4c2.4,0,4.4,2,4.4,4.4c0,2.5-2,4.5-4.4,4.5C54.3,83.6,52.3,81.6,52.3,79.1z"/>
	</g>
</g>
</svg>
